<?xml version="1.0" encoding="UTF-8" standalone="no"?><!DOCTYPE svg PUBLIC "-//W3C//DTD SVG 1.1//EN" "http://www.w3.org/Graphics/SVG/1.1/DTD/svg11.dtd"><svg width="100%" height="100%" viewBox="0 0 2134 2134" version="1.1" xmlns="http://www.w3.org/2000/svg" xmlns:xlink="http://www.w3.org/1999/xlink" xml:space="preserve" xmlns:serif="http://www.serif.com/" style="fill-rule:evenodd;clip-rule:evenodd;stroke-linejoin:round;stroke-miterlimit:2;"><g><path d="M1291.67,791.667c-23,-0 -41.667,18.666 -41.667,41.666c0,23 18.667,41.667 41.667,41.667c23,0 41.666,-18.667 41.666,-41.667c0,-23 -18.666,-41.666 -41.666,-41.666Z" style="fill:#f0f0f0;fill-rule:nonzero;"/></g><g><path d="M2084.5,1848.83l-556.166,-556.166c90.604,-136.475 138.329,-294.517 138.329,-459.33c-0,-459.5 -373.834,-833.333 -833.334,-833.333c-459.5,-0 -833.333,373.833 -833.333,833.333c0,459.5 373.833,833.334 833.333,833.334c164.817,-0 322.859,-47.729 459.33,-138.325l556.162,556.162c31.492,31.488 73.338,48.829 117.842,48.829c44.504,0 86.35,-17.341 117.825,-48.816c31.496,-31.471 48.841,-73.321 48.841,-117.85c0,-44.53 -17.345,-86.38 -48.829,-117.838Zm-811.437,-408.3c-0,0.004 -0.004,0.004 -0.009,0.008c-128.612,93.417 -280.662,142.796 -439.725,142.796c-413.55,0 -750,-336.45 -750,-750c0,-413.55 336.45,-750 750,-750c413.55,0 750,336.45 750,750c0,159.063 -49.379,311.113 -142.8,439.729c-46.737,64.388 -103.079,120.734 -167.466,167.467Zm87.416,37.775c43.125,-35.279 82.546,-74.7 117.821,-117.821l118.213,118.213c-35.95,42.429 -75.392,81.875 -117.821,117.821l-118.213,-118.213Zm665.096,547.275c-15.75,15.75 -36.671,24.421 -58.912,24.421c-22.242,-0 -43.163,-8.671 -58.913,-24.421l-369.979,-369.979c42.196,-36.213 81.613,-75.625 117.821,-117.821l369.992,369.992c15.741,15.725 24.412,36.637 24.412,58.896c0,22.258 -8.671,43.17 -24.421,58.912Z" style="fill:#f0f0f0;fill-rule:nonzero;"/></g><g><path d="M833.333,166.667c-367.604,-0 -666.666,299.062 -666.666,666.666c-0,367.605 299.062,666.667 666.666,666.667c367.605,0 666.667,-299.062 666.667,-666.667c0,-367.604 -299.062,-666.666 -666.667,-666.666Zm0,1250c-321.65,-0 -583.333,-261.684 -583.333,-583.334c0,-321.65 261.683,-583.333 583.333,-583.333c321.65,0 583.334,261.683 583.334,583.333c-0,321.65 -261.684,583.334 -583.334,583.334Z" style="fill:#f0f0f0;fill-rule:nonzero;"/></g><g><path d="M1300.27,654.471c-35.879,-93.383 -98.35,-173.225 -180.667,-230.888c-84.275,-59.041 -183.266,-90.25 -286.271,-90.25c-23.008,0 -41.666,18.659 -41.666,41.667c-0,23.008 18.658,41.667 41.666,41.667c171.246,-0 327.629,107.575 389.15,267.696c6.367,16.566 22.155,26.733 38.904,26.733c4.967,-0 10.021,-0.896 14.934,-2.783c21.479,-8.255 32.204,-32.359 23.95,-53.842Z" style="fill:#f0f0f0;fill-rule:nonzero;"/></g></svg>