<?xml version="1.0" encoding="UTF-8" standalone="no"?><!DOCTYPE svg PUBLIC "-//W3C//DTD SVG 1.1//EN" "http://www.w3.org/Graphics/SVG/1.1/DTD/svg11.dtd"><svg width="100%" height="100%" viewBox="0 0 8889 8889" version="1.1" xmlns="http://www.w3.org/2000/svg" xmlns:xlink="http://www.w3.org/1999/xlink" xml:space="preserve" xmlns:serif="http://www.serif.com/" style="fill-rule:evenodd;clip-rule:evenodd;stroke-linejoin:round;stroke-miterlimit:2;"><path d="M5381.98,3298.61c-95.833,0 -173.612,77.775 -173.612,173.609c-0,95.833 77.779,173.612 173.612,173.612c95.833,0 173.608,-77.779 173.608,-173.612c0,-95.834 -77.775,-173.609 -173.608,-173.609Z" style="fill:#5cb85c;fill-rule:nonzero;"/><path d="M8685.43,7703.45l-2317.36,-2317.36c377.517,-568.646 576.371,-1227.15 576.371,-1913.88c-0,-1914.58 -1557.64,-3472.22 -3472.22,-3472.22c-1914.58,0 -3472.22,1557.64 -3472.22,3472.22c-0,1914.58 1557.64,3472.22 3472.22,3472.22c686.737,-0 1345.25,-198.871 1913.88,-576.354l2317.34,2317.34c131.217,131.2 305.575,203.455 491.009,203.455c185.433,-0 359.791,-72.255 490.937,-203.4c131.234,-131.13 203.504,-305.505 203.504,-491.042c0,-185.542 -72.27,-359.917 -203.454,-490.992Zm-3380.99,-1701.25c-0,0.017 -0.017,0.017 -0.038,0.034c-535.883,389.237 -1169.42,594.983 -1832.19,594.983c-1723.12,-0 -3125,-1401.88 -3125,-3125c-0,-1723.12 1401.88,-3125 3125,-3125c1723.12,-0 3125,1401.88 3125,3125c-0,662.762 -205.746,1296.3 -595,1832.2c-194.738,268.283 -429.496,503.058 -697.775,697.779Zm364.233,157.396c179.688,-146.996 343.942,-311.25 490.921,-490.921l492.554,492.554c-149.792,176.788 -314.133,341.146 -490.921,490.921l-492.554,-492.554Zm2771.23,2280.31c-65.625,65.624 -152.795,101.754 -245.466,101.754c-92.675,-0 -179.846,-36.13 -245.471,-101.755l-1541.58,-1541.58c175.816,-150.887 340.054,-315.104 490.921,-490.921l1541.63,1541.63c65.587,65.521 101.717,152.654 101.717,245.4c-0,92.741 -36.13,179.875 -101.755,245.466Z" style="fill:#5cb85c;fill-rule:nonzero;"/><path d="M3472.24,694.442c-1531.68,-0 -2777.78,1246.09 -2777.78,2777.78c0,1531.69 1246.09,2777.78 2777.78,2777.78c1531.69,-0 2777.78,-1246.09 2777.78,-2777.78c-0,-1531.68 -1246.09,-2777.78 -2777.78,-2777.78Zm-0,5208.33c-1340.21,0 -2430.55,-1090.35 -2430.55,-2430.56c0,-1340.21 1090.35,-2430.55 2430.55,-2430.55c1340.21,0 2430.56,1090.35 2430.56,2430.55c-0,1340.21 -1090.35,2430.56 -2430.56,2430.56Z" style="fill:#5cb85c;fill-rule:nonzero;"/><path d="M5417.81,2726.96c-149.495,-389.095 -409.791,-721.77 -752.779,-962.033c-351.146,-246.004 -763.608,-376.042 -1192.8,-376.042c-95.866,0 -173.608,77.746 -173.608,173.613c0,95.867 77.742,173.612 173.608,173.612c713.525,0 1365.12,448.23 1621.46,1115.4c26.529,69.025 92.312,111.388 162.1,111.388c20.696,-0 41.754,-3.733 62.225,-11.596c89.495,-34.396 134.183,-134.829 99.791,-224.342Z" style="fill:#5cb85c;fill-rule:nonzero;"/></svg>